<svg width="21" height="21" viewBox="0 0 21 21" fill="none" xmlns="http://www.w3.org/2000/svg">
<path d="M13.0879 3.29161C13.1802 3.02885 13.096 2.73586 12.8788 2.56156L12.644 2.39288C12.5027 2.29842 12.3001 2.173 12.0445 2.04117C11.5352 1.7785 10.8033 1.48399 9.91901 1.36575C8.15831 1.13032 5.91315 1.61149 3.72836 4.11017L2.34377 4.11013C2.16938 4.11013 2.00216 4.17954 1.87903 4.30303L0.191529 5.9955C-0.0638454 6.25163 -0.0638425 6.6661 0.191535 6.92222L3.56653 10.3071C3.68966 10.4306 3.85687 10.5 4.03125 10.5C4.20563 10.5 4.37284 10.4306 4.49596 10.3071L6.18346 8.61465C6.30612 8.49163 6.375 8.325 6.375 8.15129V7.31248L17.3832 18.9573C17.4968 19.1109 17.6716 19.2074 17.8622 19.2216C18.0527 19.2359 18.2399 19.1663 18.375 19.0312L20.3438 17.0625C20.591 16.8152 20.601 16.4175 20.3663 16.1582L8.38428 4.83111C9.36518 4.23306 10.7102 3.7302 12.4688 3.7302C12.7473 3.7302 12.9955 3.55438 13.0879 3.29161Z" fill="#8F6626"/>
</svg>
