<svg width="23" height="23" viewBox="0 0 23 23" fill="none" xmlns="http://www.w3.org/2000/svg">
<path d="M12.5843 0.488407C11.9855 -0.162801 11.0146 -0.162804 10.4158 0.488407L0.224582 11.5715C-0.07482 11.8971 -0.07482 12.425 0.224582 12.7506C0.523984 13.0762 1.00941 13.0762 1.30881 12.7506L11.5 1.66752L21.6912 12.7506C21.9907 13.0762 22.4761 13.0762 22.7755 12.7506C23.0749 12.425 23.0749 11.8971 22.7755 11.5715L19.1667 7.64692V2.15593C19.1667 1.69546 18.8234 1.32217 18.4 1.32217H16.8667C16.4433 1.32217 16.1 1.69546 16.1 2.15593V4.31186L12.5843 0.488407Z" fill="#8B171A"/>
<path d="M11.5 3.4781L20.7 13.4833V20.4987C20.7 21.8801 19.6703 23 18.4 23H4.60003C3.32978 23 2.30003 21.8801 2.30003 20.4987V13.4833L11.5 3.4781Z" fill="#8B171A"/>
</svg>
