<svg width="17" height="17" viewBox="0 0 17 17" fill="none" xmlns="http://www.w3.org/2000/svg">
<g clip-path="url(#clip0_592_4163)">
<path d="M12.9056 0.1556C13.1131 -0.0518665 13.4494 -0.0518665 13.6569 0.1556L16.8444 3.3431C17.0519 3.55057 17.0519 3.88693 16.8444 4.0944L6.21942 14.7194C6.16854 14.7703 6.10787 14.8103 6.04107 14.837L0.728567 16.962C0.531252 17.0409 0.305886 16.9947 0.155615 16.8444C0.00534425 16.6941 -0.0409138 16.4688 0.0380122 16.2714L2.16301 10.9589C2.18973 10.8921 2.22974 10.8315 2.28061 10.7806L12.9056 0.1556ZM11.9076 2.65625L14.3438 5.09245L15.7175 3.71875L13.2813 1.28255L11.9076 2.65625ZM13.5925 5.84375L11.1563 3.40755L4.25002 10.3138V10.625H4.78127C5.07467 10.625 5.31252 10.8628 5.31252 11.1562V11.6875H5.84377C6.13717 11.6875 6.37501 11.9253 6.37501 12.2188V12.75H6.68621L13.5925 5.84375ZM3.22114 11.3427L3.10902 11.4548L1.48489 15.5151L5.54522 13.891L5.65734 13.7789C5.4559 13.7034 5.31252 13.5091 5.31252 13.2812V12.75H4.78127C4.48786 12.75 4.25002 12.5122 4.25002 12.2188V11.6875H3.71877C3.49096 11.6875 3.29664 11.5441 3.22114 11.3427Z" fill="#8F6626"/>
</g>
<defs>
<clipPath id="clip0_592_4163">
<rect width="17" height="17" fill="white"/>
</clipPath>
</defs>
</svg>
