<svg width="22" height="14" viewBox="0 0 22 14" fill="none" xmlns="http://www.w3.org/2000/svg">
<path d="M10.6726 9.94545C12.1462 9.94545 13.3407 8.79866 13.3407 7.38403C13.3407 5.96939 12.1462 4.8226 10.6726 4.8226C9.19902 4.8226 8.00445 5.96939 8.00445 7.38403C8.00445 8.79866 9.19902 9.94545 10.6726 9.94545Z" fill="#8F6626"/>
<path d="M0 2.26118C0 1.55386 0.597286 0.980469 1.33407 0.980469H20.0111C20.7479 0.980469 21.3452 1.55386 21.3452 2.26118V12.5069C21.3452 13.2142 20.7479 13.7876 20.0111 13.7876H1.33407C0.597286 13.7876 0 13.2142 0 12.5069V2.26118ZM4.00222 2.26118C4.00222 3.67581 2.80765 4.8226 1.33407 4.8226V9.94545C2.80765 9.94545 4.00222 11.0922 4.00222 12.5069H17.343C17.343 11.0922 18.5375 9.94545 20.0111 9.94545V4.8226C18.5375 4.8226 17.343 3.67581 17.343 2.26118H4.00222Z" fill="#8F6626"/>
</svg>
