<svg width="17" height="18" viewBox="0 0 17 18" fill="none" xmlns="http://www.w3.org/2000/svg">
<path d="M0.511395 10.9718C0.793831 10.9718 1.02279 11.2007 1.02279 11.4832V14.0401C1.02279 14.605 1.48071 15.0629 2.04558 15.0629H14.3191C14.8839 15.0629 15.3419 14.605 15.3419 14.0401V11.4832C15.3419 11.2007 15.5708 10.9718 15.8533 10.9718C16.1357 10.9718 16.3646 11.2007 16.3646 11.4832V14.0401C16.3646 15.1699 15.4488 16.0857 14.3191 16.0857H2.04558C0.915838 16.0857 0 15.1699 0 14.0401V11.4832C0 11.2007 0.228959 10.9718 0.511395 10.9718Z" fill="#8F6626"/>
<path d="M7.82071 2.01868C8.02042 1.81897 8.34422 1.81897 8.54393 2.01868L11.6123 5.08705C11.812 5.28676 11.812 5.61056 11.6123 5.81027C11.4126 6.00999 11.0888 6.00999 10.8891 5.81027L8.69372 3.61491V12.6082C8.69372 12.8906 8.46476 13.1196 8.18232 13.1196C7.89989 13.1196 7.67093 12.8906 7.67093 12.6082V3.61491L5.47556 5.81027C5.27585 6.00999 4.95205 6.00999 4.75234 5.81027C4.55263 5.61056 4.55263 5.28676 4.75234 5.08705L7.82071 2.01868Z" fill="#8F6626"/>
</svg>
